<svg xmlns="http://www.w3.org/2000/svg" viewBox="0 0 501.5 60.7">
  <g fill="#DC002E">
    <path d="M109.5 27.6c-3-2.9-6.9-4.7-11.2-4.7-9.2 0-16.6 8.1-16.7 18.2 0 10 7.5 18.2 16.6 18.2 4.3 0 8.3-1.8 11.2-4.8V59h11.1V0h-11.1l.1 27.6zm-8.1 22.7c-4.5 0-8.2-4-8.2-8.9s3.7-8.9 8.2-8.9c4.5 0 8.1 4 8.1 9 0 4.8-3.6 8.8-8.1 8.8zM38.1 19.6c0-9.1-7.5-16.5-16.7-16.5h-1.9L0 3v55.7h11.8l.1-46H19c4.4 0 7.7 3.3 7.7 7.3s-3.6 7.3-7.9 7.3H16v13.3l11.8 18.3h13.9L25.4 35.5c7.3-1.8 12.7-8.2 12.7-15.9z"/>
    <path d="M58.5 22.9c-10.2 0-18.4 8.3-18.4 18.6 0 10.2 8.2 18.6 18.3 18.6 7.7 0 13.8-3.5 16.9-9l-9-4.1c-1.2 2.5-3.8 4.2-7 4.2-4.2 0-7.6-3.1-7.6-6.9 0-.3-.1-.2-.1-.4l24.6.1c.1-.8.2-1.6.1-2.4.2-12.1-7.7-18.7-17.8-18.7zm-6.8 14.5c0-3.8 3.1-6.8 6.8-6.8 3.7 0 6.8 3 6.8 6.8H51.7zM240.8.6l-.1 58.6h11.1l.1-58.6zM221.9 59.1l11.1.1.1-58.6H222zM167.5 28.7c3-2.8 4.9-6.7 4.9-10.8 0-3.8-1.4-7.3-4-10-2.7-2.9-7.3-4.2-13.7-4.2l-19-.1V59h24.6c9.4-.1 17-7.3 17-16-.1-6.3-2.3-10.9-9.8-14.3zm-9.3 20.6h-10.6V13.2h7.4c3.3 0 5.9 2.6 5.9 5.9 0 3.3-2.7 5.9-5.9 5.9h-3.9v10l7.1.1c3.9 0 6.9 3.2 6.9 7.1-.2 4-2.7 6.9-6.9 7.1zM204.8 45c0 3.3-2.9 6.1-6.3 6.1-3.6 0-6.4-2.7-6.4-6.1V25h-11v22.2c0 7.5 7.7 13.6 17.3 13.6 9.6 0 17.4-6.1 17.4-13.6V25h-11v20z"/>
  </g>
  <path fill="#B1B3B4" d="M295.2 14.3c-2.2-3.8-4.9-6.1-9.6-6.1-5 0-9.3 3.6-9.3 8.7 0 4.8 5 7 8.7 8.7l3.7 1.6c7.3 3.2 13.4 6.8 13.4 15.7 0 9.8-7.8 17.2-17.5 17.2-9 0-15.6-5.8-17.4-14.4l6.1-1.7c.8 5.7 5.2 10.4 11.2 10.4 6 0 11.5-4.6 11.5-10.9 0-6.5-5.1-8.7-10.3-11.1l-3.4-1.5c-6.5-3-12.1-6.3-12.1-14.3 0-8.7 7.3-14.2 15.6-14.2 6.2 0 11.5 3.2 14.4 8.7l-5 3.2zM345.4 26.1V3.4h6.2v55.8h-6.2V31.9h-28.6v27.4h-6.2V3.4h6.2v22.7h28.6z"/>
  <circle fill="#B1B3B4" cx="387.1" cy="31.3" r="29"/>
  <circle fill="#FFF" cx="387.1" cy="31.3" r="23.9"/>
  <circle fill="#FDC600" cx="387.1" cy="31.3" r="22.4"/>
  <path fill="#FFF" d="M387.1 35.2c-.7.2-1.4.4-2 .6.2.4.5.9.9 1.3.2-.5.5-.9.7-1.3.1-.1.3-.3.4-.6zm-36.4 3.9c-.5-.7-1-2.1-1.4-4.1-6.1 1.6-9.4-2.2-9.5-5.8-.1-2.8.5-4 3.3-6.7-3.1-.2-5.1-2.7-5.1-4.9 0-1.9.3-2.4.6-3.1l.3-.5.5.3s2.4 1.4 3.4 1.7h1c.5 0 1.2.1 1.9.2 1.3.3 2.9.9 3.5 2.6.6 1.6.4 2.8-.4 4-.3.5-.8 1.1-1.3 1.6l-1.7 1.7c-.9.9-1.3 1.9-1.1 2.8.2 1.1 1.2 1.5 2.2 1.4 1.2-.1 2.4-.9 3.6-2 .6-.5 1.3-1.1 1.9-1.7.7-.6 1.4-1.1 2.2-1.6.7-.4 1.3-.7 1.9-.9.6-.2 1.1-.3 1.6-.4.9-.2 1.7-.4 2.5-1 .2-.2.5-.4.8-.8.3-.4.7-.8 1.1-1.1.8-.8 1.8-1.5 3.1-1.7.3-.1.7-.1 1-.2.4-.1.6-.1.8-.2.1-.1.2-.2.5-.4.2-.2.4-.5.7-.8.6-.6 1.4-1.4 2.5-1.9 1.5-.6 2.5-1.1 3.4-1.6.9-.5 1.8-1.1 3-2 .7-.7 3.9-2.1 7.5-.2 1.1.6 2 1.2 3 1.9s2.2 1.5 3.8 2.7c.5.4 1.1 1 1.6 1.5.5.6 1 1.1 1.4 1.5 1.8 1.9 3.2 3.3 3.7 5.2.8 3.3 1.3 5.2 2.9 8.5l.1.1c.1.1.2.1.3.2l.3.3c.1.1.2.2.4.3.2.3.5.6.6.9l.6.9c.4.6.9 1 1.5 1.3.8.3 1 .5 1.4.7.6.5.4 1.3 0 1.8-.3.3-.7.5-1.1.6.3.9-.3 1.9-1.7 2-2.9.4-4.9-.8-5.8-1.5l-.1.1c-.3.2-.7.6-1.3.9-.7.4-1.5.5-2.1.5h-1c-.3 0-.6 0-.8.1-.5.2-1.1.4-1.7.7-.6.2-1.3.5-2 .6-1.2.1-2.1-.3-2.6-1-.1-.1-.2-.3-.3-.5-.4 1-.8 1.7-1.3 2.1-.5.2-1 .4-1.5.5-.2.1-.5.1-.6.1h-.2c-1.9 1.1-5 2.7-6.2 2.8-1.4.2-3-.8-3.9-2.3-.6.1-1.4 0-1.7-.2-.9-.7-2.2-2.8-2.3-3.6-.1-.6.3-1 .6-1.3.3-.2.8-.4 1.2-.5.8-.3 1.7-.3 2.1-.3h.8c.1 0 .2 0 .3.1.2-.4.8-.6 1.2-.7h.3c-.3-.2-.5-.4-.7-.6-.1.1-.2.1-.4.2-.4.1-.8.3-1.4.4-1.7.3-4.4.3-4.7.3l-2 .5c-.7.2-1.4.3-2 .4-.2.6-.5 1.2-.7 1.8-.2.6-.5 1.2-.7 1.5-.3.5-.8.8-1.1 1.1-.2.1-.4.2-.5.3-.1.1-.3.2-.3.3l-1.5 1c-.6.3-1.3.7-2 .6-1.6-.1-2.7-.1-3.2-.1-.2 0-.4.1-.8.4-.1.1-.3.3-.5.4-.2.2-.3.4-.5.6-.7.7-1.7 1.6-3.2 1.7h-.7c-.1 0-.3 0-.5-.1-.1.1-.2.3-.3.5-.1.1-.1.3-.2.4-.1.2-.2.3-.3.5-.4.7-1.1 1.3-2.4 1.5h-.7c-.2 0-.6-.1-.9-.1-.3 0-.6-.1-.9-.1h-.3l-.2.2c-.1.1-.3.2-.5.2h-1.5c-.3-.1-.7-.1-1-.3-.3-.1-.7-.4-.8-.8-.2-.6-.2-1 0-1.4.1-.2.2-.3.2-.4 0-.1.1-.2.1-.4 0-.3.1-.6.1-.9.1-.3.1-.6.2-1 .2-.7.7-1.3 1.7-1.5l.1-.1c.5-1.7 2.2-2.8 3.3-2.8h.1c.9.1 1.5.5 1.8 1.1.2-.2.4-.4.4-.6 0-.1 0-.2.1-.2 0-.1.1-.3.1-.4.1-.3.2-.7.2-1 .2-.7.6-1.7 1.6-1.8.9-.1 1.8-.3 2.4-.6.6-.3.7-.4.8-.4z"/>
  <path fill="#DC002E" d="M341.5 48v.3c-.3.8-.4 1.8-.5 2.8-.7 0-1.2-.2-1.7-.3-.1-.1-.1-.3 0-.5.6-.6.3-1.3.4-2 .1-.4.4-.8.8-1.1.4.1.8.6 1 .8zm2.8-3.1c-.3.7-.7 1.6-1.4 2-.3.1-.6.1-.9 0-.2-.1-.4-.3-.5-.5 0-.2-.1-.6.1-.8.5-.4 1.1-.8 1.5-1.3.2-.1.4-.2.5-.1.3.3.6.5.7.7zm34.1-3.6c.1.3.6.6.3.9-.5.5-1.1.8-1.8.8-.6-.3-.6-1.2-1.2-1.6-.1-.4-.8-.3-.7-.8l.2-.1c.7-.1 1.5-.2 2.2-.4.8-.1.6.8 1 1.2zm-35.7-24.1c1.7.3 3.4.1 4.8 1.3.8.8 1 2.2.5 3.1-.8 1.7-2.6 2.8-3.6 4.3-1 1.1-1.4 2.7-.8 4.1.5 1.2 1.9 2 3.2 2 2-.1 3.5-1.3 5-2.4 1.5-1.3 2.9-2.9 4.7-3.6 1.2-.6 2.6-.5 3.7-1.1 1.3-.4 2.2-1.6 3.1-2.6 1.1-1.1 2.4-1.7 3.9-1.8 1.4.1 2-1.2 2.9-2.1 1.4-1.5 3.5-1.9 5.2-2.9 1.2-.5 2.2-1.6 3.3-2.3 1.1-.6 2.7-.8 3.9-.5.8.3 1.6.5 2.3 1l6 4.1c.1.2.3.3.5.4 1.7 1.8 3.6 3.5 5 5.4.5.7.7 1.5 1 2.2.6 3.1 1.7 5.7 3 8.4.3.4.9.6 1.2 1 1 1.1 1.7 2.6 3.2 3.3l.9.3c0 .1.1.2 0 .3l-.1.1c-1.7.5-3.1-.5-4.1-1.6-.6-1-1.5-2.1-2.8-2.5-.1 0-.1.1-.2.1.2.3.6.6.8 1 .5.7 1 1.5 1.3 2.3.3.8 1.4 1.4 2.2 1.8l1.2.4c.2.1.2.3.1.4l-.2.1c-1.8.2-3.5-.2-4.9-1.4-.4-.3-.8-.6-1.2-.5-.7.8-1.5 1.6-2.6 1.8-1.1-.1-2.4 0-3.4.6-.9.4-1.8.9-2.8 1-.5 0-1.1-.1-1.3-.6-.1-.6-.6-1.2-.2-1.9l.6-1.1c0-.2-.1-.2-.3-.3-.3 0-.7.5-.9 0 0-1.1.9-1.8 1.6-2.6.1-.9.3-1.6.9-2.3 0-.1-.1-.2-.2-.2-.9.2-1.7.5-2.7.6-.7.5-1.6.8-2.5.7-.2-.1-.2-.3-.1-.5.8-1.4 1-3 .6-4.6-.1-.1-.3-.2-.4-.2-.2 0-.3.2-.3.3-.1 1.5-.2 2.7-.8 4-.5.7-1.5.8-2.3 1.1-.2.1-.4.3-.3.5 0 .5.4.9.7 1.3l2 3.1c.2.9-.2 1.8-.3 2.6.1.1.2.1.3 0 .6-.6.9-1.4 1.1-2.2 0-.4-.2-.8-.3-1l-2.2-3.5c.1-.2.4-.2.6-.3.4-.1.8.1 1.2.2.5 1.1 1.1 2.2 2 3 .2.6.5 1.4.1 2-.3.8-.7 1.6-1.1 2.4-.4.5-1.1.6-1.8.7l-.6.1c-1.5 1-3.2 1.7-4.9 2.4-.7.4-1.7.3-2.3-.2-.7-.4-1-1.1-1.5-1.7-.5-.6-1.2 0-1.8-.2-.5-.7-1.1-1.5-1.6-2.2 0-.2 0-.4.1-.6.6-.3 1.3-.4 1.9-.5.7-.1 1.3 0 1.8.4.9.9 1.3 2.1 2.6 2.7 1 0 1.8-.4 2.5-.9.5-.3 1-.8.9-1.4-.2-1.2-1.1-2.1-2.1-2.7-1.1-.4-2.2-1.1-3.1-2-.4-.5-.6-1.1-.9-1.7-.1-.1-.4-.1-.6-.1-.4.4 0 .6.1 1 .1.3.1.6-.1.9-.5.5-1.1.4-1.9.5-1.5 0-2.8 0-4.4.3-1.5.2-3.5 1.3-4.8-.1-.7-1.4-.4-3.1-.2-4.6 0-.2-.3-.3-.4-.3-.1 0-.5.1-.5.2-.2 1.4-.2 3-.4 4.5-.4 1.3-1.2 2.5-2.5 3.3-1.1.7-2.5 1.1-3.9 1.3-2.6.3-4.9 1.1-6.3 3.4-.1.2-.3.7-.2 1 .1.1.3.1.4 0 1.6-2.2 3.8-3.2 6.3-3.3 3.4-.3 4.7-.7 6.2-3.2l.9-1.5c.3-.1.5.3.7.4.1.7-.4 1.3-.6 1.9-.3.7-.5 1.6-1.2 2-.8.3-1.4.9-2.1 1.4-.7.4-1.6.7-2.5.5-1.1-.1-2.7-.2-3.7.4-.5.4-.9 1.1-1.4 1.5-.8.4-1.4 1.1-2.3 1.2-.6-.1-1.4-.4-1.9.2-.6.7-.7 1.8-1.5 2.3-1 .6-2.1.2-3.1.2.1-1 .1-2 .7-2.8.4-.1.7-.2 1-.5.4-.4.7-.9.9-1.4.8-.6 1.8-1.2 2.3-2.2.3-.9.3-1.8.9-2.6l.3-.2h2.2c.7-.4 1.4-.8 2-1.4.2-.3.2-.6.1-.9-.4-.9-.8-1.5-1.1-2.4-.3-1-.3-1.9-.5-3l-.3-.3c-1.2.3-2.3.8-3.7.8-1.9-.1-3.9-1.1-4.7-2.8-.8-1.5-.8-3.8.2-5.1 1-1.5 2.3-2.7 3.5-3.9.2-.2.2-.4.2-.7 0-.3-.3-.5-.6-.6-.8-.1-1.8.3-2.6 0-1.5-.4-2.7-1.6-3-3.1-.1-.7-.1-1.2.2-1.8 1 .5 1.9 1.2 3 1.4z"/>
  <path fill="#FFF" d="M384.8 23.7c-.1.2-.3.2-.4.2h-.1v-.1c-.3-1-.6-1.9-1.1-2.8l-.3-.3c-.1-.1-.2-.2-.3-.4-.2-.3-.3-.6-.2-1v-.1c.2-.2.5-.3.7-.2h.1c.4.2.7.6.9 1 .8 1.1.9 2.5.7 3.7zM397.5 31.6c0 .1-.1.1-.1.2v.2c0 .2-.1.3-.3.4-.2.1-.5-.1-.5-.3-.1-.3-.1-.6-.2-.9-.1-.3-.2-.5-.4-.8-.1-.1-.2-.2-.4-.3l-.4-.4c-.3-.2-.5-.4-.8-.3-.2.1-.4.2-.5.4-.1.1-.2.2-.2.3l-.2.3c-.1.2-.3.1-.3.1h-.1v-.1c-.2-.4-.1-.7 0-1.1.1-.3.3-.6.3-.9v-.1c0-.1.1-.2.2-.3 0-.2.1-.3.1-.5.2-.4.4-.6 1-.5.3.1.6.4.8.6.1.1.2.2.3.4l.3.3c.9 1 1.6 2 1.4 3.3zM395.2 38.3c-.5.2-1 .3-1.5.3h-.1-.1c-.1-.1-.2-.2-.1-.3.2-.7.7-1.4 1.5-1.7h.4c.1 0 .3.1.3.3 0 .4.1 1-.4 1.4z"/>
  <g fill="#B1B3B4">
    <path d="M429.2 59.2H423V3.4h9.2c4.8 0 9.8.1 13.8 3 4.1 2.9 6.3 7.8 6.3 12.7 0 4.5-1.9 9.1-5.3 12-3.8 3.1-8.6 3.7-13.2 3.7h-4.5v24.4zm0-30.2h4.1c6.9 0 12.7-2 12.7-10 0-9.1-7.3-9.8-14.6-9.8h-2.3V29zM461.4 47.6c0 2.2-.1 4.6 1.3 6.5 1.3 1.8 3.7 2.8 5.9 2.8 2.1 0 4.4-1 5.7-2.6 1.5-1.8 1.4-4.4 1.4-6.7V30.3h3.2v18.2c0 3.2-.2 5.7-2.5 8.1-2 2.2-4.9 3.3-7.8 3.3-2.7 0-5.6-1-7.5-3-2.5-2.4-2.9-5.1-2.9-8.4V30.3h3.2v17.3zM497.9 36c-1.2-2-2.5-3.2-5-3.2-2.6 0-4.8 1.9-4.8 4.5 0 2.5 2.6 3.7 4.5 4.5l1.9.8c3.8 1.7 7 3.5 7 8.2 0 5.1-4.1 9-9.1 9-4.7 0-8.1-3-9.1-7.5l3.2-.9c.4 3 2.7 5.4 5.8 5.4s6-2.4 6-5.7c0-3.4-2.7-4.5-5.4-5.8l-1.8-.8c-3.4-1.5-6.3-3.3-6.3-7.4 0-4.5 3.8-7.4 8.1-7.4 3.2 0 6 1.7 7.5 4.5l-2.5 1.8z"/>
  </g>
</svg>
